<?xml version="1.0" encoding="UTF-8"?>
<svg xmlns="http://www.w3.org/2000/svg" viewBox="0 0 200 200"><path fill="#1b2746" d="M100 0L0 100l100 100 100-100L100 0zm-1.458 149.297c-5.693 0-10.309-4.615-10.309-10.309s4.615-10.309 10.309-10.309c5.693 0 10.309 4.615 10.309 10.309s-4.615 10.309-10.309 10.309zm1.072-29.573h-1.473c-5.177 0-9.413-4.236-9.413-9.413V65.564c0-5.177 4.236-9.413 9.413-9.413h1.473c5.177 0 9.413 4.236 9.413 9.413v44.746c0 5.178-4.236 9.414-9.413 9.414z" style="fill: #ffd200;"/></svg>
