<?xml version="1.0" encoding="UTF-8"?>
<svg xmlns="http://www.w3.org/2000/svg" viewBox="0 0 500 500"><path fill="#03234b" d="M495.106 430.471L271.602 36.967a23.001 23.001 0 0 0-39.998 0L8.102 430.47a23.001 23.001 0 0 0 19.999 34.36l447.006.001a23 23 0 0 0 19.999-34.36zM233.854 130.95c4.897-5.305 11.151-7.957 18.77-7.957 7.616 0 13.874 2.621 18.771 7.855 4.896 5.238 7.345 11.801 7.345 19.689 0 6.803-2.244 29.653-6.732 68.552-4.489 38.901-8.436 76.509-11.834 112.825H244.26c-2.993-36.316-6.701-73.924-11.119-112.825-4.421-38.899-6.631-61.749-6.631-68.552-.001-7.753 2.447-14.282 7.344-19.587zm38.459 285.124c-5.509 5.372-12.072 8.059-19.689 8.059-7.619 0-14.179-2.687-19.688-8.059-5.509-5.371-8.263-11.865-8.263-19.484 0-7.616 2.754-14.18 8.263-19.688 5.509-5.509 12.069-8.263 19.688-8.263 7.616 0 14.18 2.754 19.689 8.263s8.263 12.072 8.263 19.688c-.001 7.619-2.755 14.113-8.263 19.484z" style="fill: #3CB4E6;"/></svg>
