<?xml version="1.0" encoding="UTF-8"?>
<svg xmlns="http://www.w3.org/2000/svg" viewBox="0 0 16 16"><path fill="#03234b" fill-rule="evenodd" d="M8 0a8 8 0 1 0 0 16A8 8 0 0 0 8 0zm.521 13.978H6.979V6.532h1.543v7.446zm.256-9.782a1.22 1.22 0 0 1-.243.347 1.113 1.113 0 0 1-.351.238c-.133.058-.274.087-.424.087s-.29-.029-.42-.087a1.148 1.148 0 0 1-.586-.585 1.082 1.082 0 0 1 0-.849 1.113 1.113 0 0 1 1.005-.68c.15 0 .292.029.425.086a1.13 1.13 0 0 1 .594.593 1.036 1.036 0 0 1 0 .85z" clip-rule="evenodd" style="fill: #e6007e;"/></svg>
